<?xml version="1.0" encoding="UTF-8" standalone="no"?>
<svg
   viewBox="0 0 48 48"
   width="48px"
   height="48px"
   version="1.1"
   id="svg1"
   sodipodi:docname="icons8-info-white.svg"
   inkscape:version="1.3.2 (091e20e, 2023-11-25, custom)"
   xmlns:inkscape="http://www.inkscape.org/namespaces/inkscape"
   xmlns:sodipodi="http://sodipodi.sourceforge.net/DTD/sodipodi-0.dtd"
   xmlns="http://www.w3.org/2000/svg"
   xmlns:svg="http://www.w3.org/2000/svg">
  <defs
     id="defs1" />
  <sodipodi:namedview
     id="namedview1"
     pagecolor="#ffffff"
     bordercolor="#000000"
     borderopacity="0.25"
     inkscape:showpageshadow="2"
     inkscape:pageopacity="0.0"
     inkscape:pagecheckerboard="0"
     inkscape:deskcolor="#d1d1d1"
     inkscape:zoom="10.604167"
     inkscape:cx="24"
     inkscape:cy="24"
     inkscape:window-width="1366"
     inkscape:window-height="705"
     inkscape:window-x="1358"
     inkscape:window-y="32"
     inkscape:window-maximized="1"
     inkscape:current-layer="svg1" />
  <path
     d="M24,4C12.972,4,4,12.972,4,24s8.972,20,20,20s20-8.972,20-20S35.028,4,24,4z M25.5,33.5c0,0.828-0.672,1.5-1.5,1.5 s-1.5-0.672-1.5-1.5v-11c0-0.828,0.672-1.5,1.5-1.5s1.5,0.672,1.5,1.5V33.5z M24,18c-1.105,0-2-0.895-2-2c0-1.105,0.895-2,2-2 s2,0.895,2,2C26,17.105,25.105,18,24,18z"
     id="path1"
     style="fill:#ffffff" />
</svg>
