<?xml version="1.0" encoding="UTF-8" standalone="no"?>
<svg
   viewBox="0 0 48 48"
   width="48px"
   height="48px"
   version="1.1"
   id="svg1"
   sodipodi:docname="icons8-linkedin-white.svg"
   inkscape:version="1.3.2 (091e20e, 2023-11-25, custom)"
   xmlns:inkscape="http://www.inkscape.org/namespaces/inkscape"
   xmlns:sodipodi="http://sodipodi.sourceforge.net/DTD/sodipodi-0.dtd"
   xmlns="http://www.w3.org/2000/svg"
   xmlns:svg="http://www.w3.org/2000/svg">
  <defs
     id="defs1" />
  <sodipodi:namedview
     id="namedview1"
     pagecolor="#ffffff"
     bordercolor="#000000"
     borderopacity="0.25"
     inkscape:showpageshadow="2"
     inkscape:pageopacity="0.0"
     inkscape:pagecheckerboard="0"
     inkscape:deskcolor="#d1d1d1"
     inkscape:zoom="10.604167"
     inkscape:cx="24"
     inkscape:cy="24"
     inkscape:window-width="1366"
     inkscape:window-height="705"
     inkscape:window-x="1358"
     inkscape:window-y="32"
     inkscape:window-maximized="1"
     inkscape:current-layer="svg1" />
  <path
     d="M36.5,6h-25C8.468,6,6,8.468,6,11.5v25c0,3.032,2.468,5.5,5.5,5.5h25c3.032,0,5.5-2.468,5.5-5.5v-25 C42,8.468,39.532,6,36.5,6z M18,34c0,0.553-0.447,1-1,1h-3c-0.553,0-1-0.447-1-1V21c0-0.553,0.447-1,1-1h3c0.553,0,1,0.447,1,1V34z M15.5,18c-1.381,0-2.5-1.119-2.5-2.5c0-1.381,1.119-2.5,2.5-2.5s2.5,1.119,2.5,2.5C18,16.881,16.881,18,15.5,18z M35,34 c0,0.553-0.447,1-1,1h-3c-0.553,0-1-0.447-1-1v-7.5c0-1.379-1.121-2.5-2.5-2.5S25,25.121,25,26.5V34c0,0.553-0.447,1-1,1h-3 c-0.553,0-1-0.447-1-1V21c0-0.553,0.447-1,1-1h3c0.553,0,1,0.447,1,1v0.541C26.063,20.586,27.462,20,29,20c3.309,0,6,2.691,6,6V34z"
     id="path1"
     style="fill:#ffffff" />
</svg>
