<?xml version="1.0" encoding="UTF-8" standalone="no"?>
<svg
   viewBox="0 0 48 48"
   width="48px"
   height="48px"
   version="1.1"
   id="svg1"
   sodipodi:docname="moon-white.svg"
   inkscape:version="1.3.2 (091e20e, 2023-11-25, custom)"
   xmlns:inkscape="http://www.inkscape.org/namespaces/inkscape"
   xmlns:sodipodi="http://sodipodi.sourceforge.net/DTD/sodipodi-0.dtd"
   xmlns="http://www.w3.org/2000/svg"
   xmlns:svg="http://www.w3.org/2000/svg">
  <defs
     id="defs1" />
  <sodipodi:namedview
     id="namedview1"
     pagecolor="#ffffff"
     bordercolor="#000000"
     borderopacity="0.25"
     inkscape:showpageshadow="2"
     inkscape:pageopacity="0.0"
     inkscape:pagecheckerboard="0"
     inkscape:deskcolor="#d1d1d1"
     inkscape:zoom="2.8284271"
     inkscape:cx="45.254834"
     inkscape:cy="-1.9445436"
     inkscape:window-width="1366"
     inkscape:window-height="705"
     inkscape:window-x="1358"
     inkscape:window-y="32"
     inkscape:window-maximized="1"
     inkscape:current-layer="svg1" />
  <path
     id="path2"
     style="display:inline;fill:#ffffff;stroke-width:0.00990657"
     inkscape:label="path1"
     d="M 24 3.9785156 A 20.021364 20.021364 0 0 0 3.9785156 24 A 20.021364 20.021364 0 0 0 24 44.021484 A 20.021364 20.021364 0 0 0 44.021484 24 A 20.021364 20.021364 0 0 0 43.730469 20.632812 A 13.978637 13.978637 0 0 1 30.042969 31.935547 A 13.978637 13.978637 0 0 1 16.064453 17.957031 A 13.978637 13.978637 0 0 1 27.367188 4.2695312 A 20.021364 20.021364 0 0 0 24 3.9785156 z " />
</svg>
