<?xml version="1.0" encoding="UTF-8" standalone="no"?>
<svg
   viewBox="0 0 48 48"
   width="48px"
   height="48px"
   version="1.1"
   id="svg1"
   sodipodi:docname="sun-white.svg"
   inkscape:version="1.3.2 (091e20e, 2023-11-25, custom)"
   xmlns:inkscape="http://www.inkscape.org/namespaces/inkscape"
   xmlns:sodipodi="http://sodipodi.sourceforge.net/DTD/sodipodi-0.dtd"
   xmlns="http://www.w3.org/2000/svg"
   xmlns:svg="http://www.w3.org/2000/svg">
  <defs
     id="defs1" />
  <sodipodi:namedview
     id="namedview1"
     pagecolor="#ffffff"
     bordercolor="#000000"
     borderopacity="0.25"
     inkscape:showpageshadow="2"
     inkscape:pageopacity="0.0"
     inkscape:pagecheckerboard="0"
     inkscape:deskcolor="#d1d1d1"
     inkscape:zoom="10.604167"
     inkscape:cx="24"
     inkscape:cy="24"
     inkscape:window-width="1366"
     inkscape:window-height="705"
     inkscape:window-x="1358"
     inkscape:window-y="32"
     inkscape:window-maximized="1"
     inkscape:current-layer="svg1" />
  <path
     d="M 23.976562 3.9785156 A 1.50015 1.50015 0 0 0 22.5 5.5 L 22.5 8.5 A 1.50015 1.50015 0 1 0 25.5 8.5 L 25.5 5.5 A 1.50015 1.50015 0 0 0 23.976562 3.9785156 z M 10.902344 9.4042969 A 1.50015 1.50015 0 0 0 9.8574219 11.980469 L 11.978516 14.101562 A 1.5012202 1.5012202 0 0 0 14.101562 11.978516 L 11.980469 9.8574219 A 1.50015 1.50015 0 0 0 10.902344 9.4042969 z M 37.050781 9.4042969 A 1.50015 1.50015 0 0 0 36.019531 9.8574219 L 33.898438 11.978516 A 1.5012202 1.5012202 0 0 0 36.021484 14.101562 L 38.142578 11.980469 A 1.50015 1.50015 0 0 0 37.050781 9.4042969 z M 24 13 A 11 11 0 0 0 24 35 A 11 11 0 0 0 24 13 z M 5.5 22.5 A 1.50015 1.50015 0 1 0 5.5 25.5 L 8.5 25.5 A 1.50015 1.50015 0 1 0 8.5 22.5 L 5.5 22.5 z M 39.5 22.5 A 1.50015 1.50015 0 1 0 39.5 25.5 L 42.5 25.5 A 1.50015 1.50015 0 1 0 42.5 22.5 L 39.5 22.5 z M 13.009766 33.445312 A 1.50015 1.50015 0 0 0 11.978516 33.898438 L 9.8574219 36.019531 A 1.501221 1.501221 0 1 0 11.980469 38.142578 L 14.101562 36.021484 A 1.50015 1.50015 0 0 0 13.009766 33.445312 z M 34.943359 33.445312 A 1.50015 1.50015 0 0 0 33.898438 36.021484 L 36.019531 38.142578 A 1.5012209 1.5012209 0 1 0 38.142578 36.019531 L 36.021484 33.898438 A 1.50015 1.50015 0 0 0 34.943359 33.445312 z M 23.976562 37.978516 A 1.50015 1.50015 0 0 0 22.5 39.5 L 22.5 42.5 A 1.50015 1.50015 0 1 0 25.5 42.5 L 25.5 39.5 A 1.50015 1.50015 0 0 0 23.976562 37.978516 z"
     id="path1"
     style="fill:#ffffff" />
</svg>
