<?xml version="1.0" encoding="UTF-8" standalone="no"?>
<svg
   viewBox="0 0 48 48"
   width="48px"
   height="48px"
   version="1.1"
   id="svg1"
   sodipodi:docname="system-white.svg"
   inkscape:version="1.3.2 (091e20e, 2023-11-25, custom)"
   xml:space="preserve"
   xmlns:inkscape="http://www.inkscape.org/namespaces/inkscape"
   xmlns:sodipodi="http://sodipodi.sourceforge.net/DTD/sodipodi-0.dtd"
   xmlns="http://www.w3.org/2000/svg"
   xmlns:svg="http://www.w3.org/2000/svg"><defs
     id="defs1" /><sodipodi:namedview
     id="namedview1"
     pagecolor="#ffffff"
     bordercolor="#000000"
     borderopacity="0.25"
     inkscape:showpageshadow="2"
     inkscape:pageopacity="0.0"
     inkscape:pagecheckerboard="0"
     inkscape:deskcolor="#d1d1d1"
     inkscape:zoom="5.6568542"
     inkscape:cx="-13.876971"
     inkscape:cy="12.993087"
     inkscape:window-width="1366"
     inkscape:window-height="705"
     inkscape:window-x="1358"
     inkscape:window-y="32"
     inkscape:window-maximized="1"
     inkscape:current-layer="svg1" /><path
     id="rect2"
     style="display:inline;fill:#ffffff;stroke:none;stroke-width:0.00688736;stroke-dasharray:none;stroke-opacity:1;paint-order:markers fill stroke"
     d="m 33.440044,4.97059 v 2.8043988 a 6.2021476,6.2021476 0 0 0 -1.959602,1.1188958 l -2.417797,-1.3950402 -2.068014,3.5796486 2.428024,1.401177 a 6.2021476,6.2021476 0 0 0 -0.116594,1.127077 6.2021476,6.2021476 0 0 0 0.116594,1.127078 l -2.428024,1.401177 2.068014,3.579649 2.417797,-1.395041 a 6.2021476,6.2021476 0 0 0 1.959602,1.118896 v 2.804398 h 4.136028 v -2.804398 a 6.2021476,6.2021476 0 0 0 1.959601,-1.118896 l 2.417797,1.395041 2.068014,-3.579649 -2.428024,-1.401177 A 6.2021476,6.2021476 0 0 0 41.710054,13.606747 6.2021476,6.2021476 0 0 0 41.59346,12.481716 L 44.021484,11.078493 41.95347,7.4988444 39.535673,8.8938846 A 6.2021476,6.2021476 0 0 0 37.576072,7.7749888 V 4.97059 Z M 7.9406752,8.7159249 c -2.1957523,0 -3.9621592,1.7664061 -3.9621592,3.9621601 v 19.393511 c 0,2.195752 1.7664069,3.964205 3.9621592,3.964205 H 19.524416 a 3.6542689,2.7706075 0 0 1 0.744568,1.675275 3.6542689,2.7706075 0 0 1 -3.655333,2.769626 v 2.548708 h 12.878553 v -2.548708 a 3.6542689,2.7706075 0 0 1 -3.655333,-2.769626 3.6542689,2.7706075 0 0 1 0.744567,-1.675275 H 38.16518 c 2.195748,0 3.962159,-1.768453 3.962159,-3.964205 V 24.402967 A 12.680137,12.680137 0 0 1 39.1818,25.734596 v 1.370493 c 0,1.530527 -1.230921,2.763489 -2.761443,2.763489 H 9.6854977 c -1.5305232,0 -2.7614425,-1.232962 -2.7614425,-2.763489 V 13.586292 c 0,-1.530522 1.2309193,-2.761443 2.7614425,-2.761443 H 23.169521 A 12.680137,12.680137 0 0 1 23.832268,8.7159249 Z M 35.508058,9.3520794 a 4.2546677,4.2546677 0 0 1 0.709792,0.061362 4.2546677,4.2546677 0 0 1 0.0062,0 4.2546677,4.2546677 0 0 1 0.0041,0 4.2546677,4.2546677 0 0 1 0.675019,0.1759144 4.2546677,4.2546677 0 0 1 0.03273,0.010264 4.2546677,4.2546677 0 0 1 0.640247,0.2904631 4.2546677,4.2546677 0 0 1 0.118639,0.067499 4.2546677,4.2546677 0 0 1 0.67911,0.5052411 4.2546677,4.2546677 0 0 1 0.02455,0.02455 4.2546677,4.2546677 0 0 1 0.558425,0.630019 4.2546677,4.2546677 0 0 1 0.701611,1.560727 4.2546677,4.2546677 0 0 1 0.0021,0.0041 4.2546677,4.2546677 0 0 1 0,0.0021 4.2546677,4.2546677 0 0 1 0,0.0021 4.2546677,4.2546677 0 0 1 0,0.0021 4.2546677,4.2546677 0 0 1 0.100227,0.848888 4.2546677,4.2546677 0 0 1 0,0.0021 4.2546677,4.2546677 0 0 1 0.0021,0.0675 4.2546677,4.2546677 0 0 1 -0.01227,0.128867 4.2546677,4.2546677 0 0 1 -0.08795,0.738431 4.2546677,4.2546677 0 0 1 -0.045,0.175914 4.2546677,4.2546677 0 0 1 -0.204551,0.613655 4.2546677,4.2546677 0 0 1 -0.08795,0.184095 4.2546677,4.2546677 0 0 1 -0.321145,0.55638 4.2546677,4.2546677 0 0 1 -0.104321,0.145232 4.2546677,4.2546677 0 0 1 -0.470468,0.529787 4.2546677,4.2546677 0 0 1 -0.07569,0.07569 4.2546677,4.2546677 0 0 1 -0.666838,0.497059 l 0.0021,0.0021 a 4.2546677,4.2546677 0 0 1 -0.112503,0.06546 v -0.0062 a 4.2546677,4.2546677 0 0 1 -2.068014,0.548197 4.2546677,4.2546677 0 0 1 -2.068014,-0.548197 v 0.0062 a 4.2546677,4.2546677 0 0 1 -0.112503,-0.06546 l 0.0021,-0.0021 a 4.2546677,4.2546677 0 0 1 -0.666838,-0.497059 4.2546677,4.2546677 0 0 1 -0.07569,-0.07569 4.2546677,4.2546677 0 0 1 -0.470468,-0.529787 4.2546677,4.2546677 0 0 1 -0.104322,-0.145232 4.2546677,4.2546677 0 0 1 -0.321146,-0.55638 4.2546677,4.2546677 0 0 1 -0.08795,-0.184095 4.2546677,4.2546677 0 0 1 -0.204551,-0.613655 4.2546677,4.2546677 0 0 1 -0.045,-0.175914 4.2546677,4.2546677 0 0 1 -0.08795,-0.738431 4.2546677,4.2546677 0 0 1 -0.01227,-0.128867 4.2546677,4.2546677 0 0 1 0.01227,-0.128868 4.2546677,4.2546677 0 0 1 0.08795,-0.73843 4.2546677,4.2546677 0 0 1 0.045,-0.175913 4.2546677,4.2546677 0 0 1 0.204551,-0.613655 4.2546677,4.2546677 0 0 1 0.08795,-0.184095 4.2546677,4.2546677 0 0 1 0.320918,-0.556573 4.2546677,4.2546677 0 0 1 0.104322,-0.145231 4.2546677,4.2546677 0 0 1 0.470468,-0.529789 4.2546677,4.2546677 0 0 1 0.07569,-0.07568 4.2546677,4.2546677 0 0 1 0.666837,-0.4970603 l -0.0021,-0.00209 a 4.2546677,4.2546677 0 0 1 0.112503,-0.065456 v 0.00618 A 4.2546677,4.2546677 0 0 1 35.508064,9.3521004 Z M 23.052927,30.684738 a 2.2582467,2.267067 0 0 1 2.258247,2.266428 2.2582467,2.267067 0 0 1 -2.258247,2.268475 2.2582467,2.267067 0 0 1 -2.258246,-2.268475 2.2582467,2.267067 0 0 1 2.258246,-2.266428 z"
     inkscape:label="path1" /></svg>
